<?xml version="1.0" encoding="utf-8"?>
<!-- Generator: Adobe Illustrator 17.0.0, SVG Export Plug-In . SVG Version: 6.00 Build 0)  -->
<!DOCTYPE svg PUBLIC "-//W3C//DTD SVG 1.1//EN" "http://www.w3.org/Graphics/SVG/1.1/DTD/svg11.dtd" [
	<!ENTITY ns_flows "http://ns.adobe.com/Flows/1.0/">
	<!ENTITY ns_extend "http://ns.adobe.com/Extensibility/1.0/">
	<!ENTITY ns_ai "http://ns.adobe.com/AdobeIllustrator/10.0/">
	<!ENTITY ns_graphs "http://ns.adobe.com/Graphs/1.0/">
]>
<svg version="1.1" id="레이어_1" xmlns:x="&ns_extend;" xmlns:i="&ns_ai;" xmlns:graph="&ns_graphs;"
	 xmlns="http://www.w3.org/2000/svg" xmlns:xlink="http://www.w3.org/1999/xlink" xmlns:a="http://ns.adobe.com/AdobeSVGViewerExtensions/3.0/"
	 x="0px" y="0px" width="404.2px" height="60px" viewBox="0 0 404.2 60" style="enable-background:new 0 0 404.2 60;"
	 xml:space="preserve">
<g>
	<path style="fill:#F0992E;" d="M180.7,11.9h-6.3c-3.1,0-3.1-4.6,0-4.6h16.9c3.2,0,3.2,4.6,0,4.6h-5.9V30c0,3.1-4.7,3.2-4.7,0V11.9z
		"/>
	<path style="fill:#F0992E;" d="M202,29.9c0,3.1-4.8,3.2-4.8,0.1V9.6c0-1.3,1-2.2,2.1-2.2h9.5c9.1,0,11,12.2,3.4,15.2l4.8,5.8
		c1.9,2.8-1.9,5.4-4,2.7l-5.4-7.7H202V29.9z M202,19.3h6.9c4.7,0,4.9-7.5,0-7.5H202V19.3z"/>
	<path style="fill:#F0992E;" d="M220.9,32.2c-1.1-0.6-1.9-1.9-1.1-3.4L230,8.7c1-1.9,3.5-2,4.4,0l10.1,20.1c1.5,2.8-2.9,5-4.2,2.2
		l-1.6-3.1h-13.2l-1.5,3.1C223.5,32.2,222.2,32.5,220.9,32.2z M236.3,23.1l-4-8.8l-4.4,8.8H236.3z"/>
	<path style="fill:#F0992E;" d="M253.1,30.6l-9.4-19.8c-1.4-2.8,2.8-5.2,4.4-2.2l3.2,7.2l4.1,9.4l4-9.4l3.2-7.2c1.4-2.7,5.6-1,4.4,2
		l-9.1,20C257,32.9,254.5,33.4,253.1,30.6z"/>
	<path style="fill:#F0992E;" d="M272.7,32.2c-1.3,0-2.2-1-2.2-2.2V9.7c0-1.3,1-2.2,2.2-2.2h12.8c3.3,0,3.2,4.7,0,4.7h-10.3v5.4h9
		c3.2,0,3.2,4.7,0,4.7h-9v5.4h10.9c3.3,0,3.5,4.7,0,4.7H272.7z"/>
	<path style="fill:#F0992E;" d="M292.5,9.6c0-1.2,1-2.2,2.3-2.2c1.1,0,2.1,1,2.1,2.2v17.9h9.7c3.5,0,3.6,4.7,0,4.7h-11.8
		c-1.3,0-2.3-0.9-2.3-2.2V9.6z"/>
	<path style="fill:#F0992E;" d="M313,9.6c0-1.2,1-2.2,2.3-2.2c1.1,0,2.1,1,2.1,2.2v17.9h9.7c3.5,0,3.6,4.7,0,4.7h-11.8
		c-1.3,0-2.3-0.9-2.3-2.2V9.6z"/>
	<path style="fill:#F0992E;" d="M332.9,32.2c-1.1-0.6-1.9-1.9-1.1-3.4L342,8.7c1-1.9,3.5-2,4.4,0l10.1,20.1c1.5,2.8-2.9,5-4.2,2.2
		l-1.6-3.1h-13.2l-1.5,3.1C335.5,32.2,334.2,32.5,332.9,32.2z M348.3,23.1l-4-8.8l-4.4,8.8H348.3z"/>
	<path style="fill:#F0992E;" d="M364.6,29.9c0,3.1-4.8,3.2-4.8,0.1V9.6c0-1.3,1-2.2,2.1-2.2h9.5c9.1,0,11,12.2,3.4,15.2l4.8,5.8
		c1.9,2.8-1.9,5.4-4,2.7l-5.4-7.7h-5.6V29.9z M364.6,19.3h6.9c4.7,0,4.9-7.5,0-7.5h-6.9V19.3z"/>
	<path style="fill:#F0992E;" d="M382.5,10.8c-1.9-2.4,2.1-5.2,4-2.5l6.6,9.8l6.7-9.8c1.9-2.6,5.8,0,3.9,2.4l-8.4,11.9V30
		c0.3,3.1-4.7,3.1-4.7,0v-7.4L382.5,10.8z"/>
</g>
<g>
	<path style="fill:#FAA949;" d="M186.9,42.1v14.5h-1.3V51H182c-0.6,1.5-1.7,2.3-3.1,2.3c-2.1,0-3.6-2-3.6-5.1c0-3.1,1.5-5.1,3.6-5.1
		c1.3,0,2.4,0.8,3,2.1h3.7v-3.2H186.9z M181.2,48.2c0-2.3-1-3.9-2.4-3.9c-1.4,0-2.4,1.5-2.4,3.9c0,2.4,1,3.9,2.4,3.9
		C180.2,52.1,181.2,50.6,181.2,48.2z M185.6,49.9v-3.5h-3.3c0.1,0.6,0.2,1.2,0.2,1.8c0,0.6-0.1,1.1-0.2,1.6H185.6z"/>
	<path style="fill:#FAA949;" d="M197.1,44.9h-7.4v-1.1h3v-1.6h1.3v1.6h3V44.9z M193.5,50.6c-1.8,0-3.1-1-3.1-2.5
		c0-1.5,1.3-2.5,3.1-2.5c1.8,0,3.1,1,3.1,2.5C196.6,49.6,195.3,50.6,193.5,50.6z M193.5,49.6c1.1,0,1.9-0.6,1.9-1.5
		c0-0.9-0.8-1.5-1.9-1.5c-1.1,0-1.9,0.6-1.9,1.5C191.6,49,192.3,49.6,193.5,49.6z M202.2,54c0,1.6-1.8,2.5-4.9,2.5s-4.9-0.9-4.9-2.5
		c0-1.6,1.8-2.5,4.9-2.5S202.2,52.4,202.2,54z M200.8,54c0-1-1.3-1.5-3.5-1.5c-2.2,0-3.5,0.6-3.5,1.5c0,1,1.3,1.5,3.5,1.5
		C199.5,55.5,200.8,55,200.8,54z M199,50.7h-1.3v-8.4h1.3V46h1.8v-3.9h1.3v9.2h-1.3v-4.2H199V50.7z"/>
	<path style="fill:#FAA949;" d="M222.4,53.6v1.1h-13.2v-1.1h5.9v-3.7h-4.2v-6.7h9.8v1.1h-8.5v4.5h8.6v1.1h-4.4v3.7H222.4z"/>
	<path style="fill:#FAA949;" d="M229.2,45.9c0,2.6,1.6,5.3,3.8,6.3l-0.8,1.1c-1.6-0.8-3-2.6-3.6-4.6c-0.6,2.2-2,4-3.6,4.9l-0.8-1.1
		c2.1-1.1,3.8-3.8,3.8-6.5v-2.6h1.3V45.9z M236.1,42.1v14.5h-1.3v-8.5h-3.4V47h3.4v-4.9H236.1z"/>
	<path style="fill:#FAA949;" d="M248.1,50.1c-3,0.5-6.5,0.6-9.1,0.6l-0.1-1.1c0.9,0,2,0,3.1,0v-3.1h1.3v3.1c1.6-0.1,3.2-0.2,4.7-0.4
		L248.1,50.1z M245.3,48.1c0.3-1.7,0.4-2.9,0.4-3.8h-5.9v-1.1h7.2V44c0,1,0,2.4-0.4,4.3L245.3,48.1z M242.4,55.2h8.3v1.1h-9.6V52
		h1.3V55.2z M252.3,46.8v1.1h-2.1V53h-1.3V42.1h1.3v4.7H252.3z"/>
</g>
<g>
	<g>
		<path style="fill:#FAA949;" d="M133.6,47.4c1.9,0,3.6-1,4.5-2.6c0.9-1.6,0.9-3.6,0-5.2C124.3,15.9,98.7,0,69.4,0
			C40,0,14.4,15.9,0.7,39.6c-0.9,1.6-0.9,3.6,0,5.2c0.9,1.6,2.6,2.6,4.5,2.6H133.6z"/>
	</g>
	<g>
		<path style="fill:#F0992E;" d="M135,34.7H3.8c-1.1,1.6-2.1,3.2-3.1,4.8c-0.9,1.6-0.9,3.6,0,5.2c0.9,1.6,2.6,2.6,4.5,2.6h128.4
			c1.9,0,3.6-1,4.5-2.6c0.9-1.6,0.9-3.6,0-5.2C137.1,37.9,136.1,36.3,135,34.7z"/>
	</g>
	<g>
		<path style="fill:#3D7A8A;" d="M123.9,26.2c-14.2-14.5-33.8-23-54.5-23s-40.3,8.5-54.5,23H123.9z"/>
	</g>
	<g>
		<path style="fill:#5A96A6;" d="M26.9,16.2c-4.3,2.9-8.4,6.3-12.1,10h109c-3.7-3.8-7.7-7.1-12.1-10H26.9z"/>
	</g>
	<g>
		<circle style="fill:#474747;" cx="111.9" cy="47.4" r="12.6"/>
	</g>
	<g>
		<circle style="fill:#EBE6DB;" cx="111.9" cy="47.4" r="7.3"/>
	</g>
	<g>
		<circle style="fill:#474747;" cx="23.9" cy="47.4" r="12.6"/>
	</g>
	<g>
		<circle style="fill:#EBE6DB;" cx="23.9" cy="47.4" r="7.3"/>
	</g>
	<g>
		<g>
			<rect x="62.5" y="36.4" style="fill:#474747;" width="4.9" height="4.9"/>
		</g>
		<g>
			<rect x="57.5" y="31.4" style="fill:#474747;" width="4.9" height="4.9"/>
		</g>
		<g>
			<rect x="72.4" y="36.4" style="fill:#474747;" width="4.9" height="4.9"/>
		</g>
		<g>
			<rect x="67.4" y="31.4" style="fill:#474747;" width="4.9" height="4.9"/>
		</g>
		<g>
			<rect x="77.3" y="31.4" style="fill:#474747;" width="4.9" height="4.9"/>
		</g>
	</g>
</g>
<g>
	<g>
		<path style="fill:#F39800;" d="M150.3,27.5c3.8,0,7.5,0,11.3,0c1.6,0,1.6-2.5,0-2.5c-3.8,0-7.5,0-11.3,0
			C148.7,25,148.7,27.5,150.3,27.5L150.3,27.5z"/>
	</g>
</g>
<g>
	<g>
		<path style="fill:#F39800;" d="M150.3,35.2c3.8,0,7.5,0,11.3,0c1.6,0,1.6-2.5,0-2.5c-3.8,0-7.5,0-11.3,0
			C148.7,32.7,148.7,35.2,150.3,35.2L150.3,35.2z"/>
	</g>
</g>
<g>
	<g>
		<path style="fill:#F39800;" d="M150.3,42.9c3.8,0,7.5,0,11.3,0c1.6,0,1.6-2.5,0-2.5c-3.8,0-7.5,0-11.3,0
			C148.7,40.4,148.7,42.9,150.3,42.9L150.3,42.9z"/>
	</g>
</g>
</svg>
