<?xml version="1.0" encoding="utf-8"?>
<!-- Generator: Adobe Illustrator 17.0.0, SVG Export Plug-In . SVG Version: 6.00 Build 0)  -->
<!DOCTYPE svg PUBLIC "-//W3C//DTD SVG 1.1//EN" "http://www.w3.org/Graphics/SVG/1.1/DTD/svg11.dtd" [
	<!ENTITY ns_flows "http://ns.adobe.com/Flows/1.0/">
	<!ENTITY ns_extend "http://ns.adobe.com/Extensibility/1.0/">
	<!ENTITY ns_ai "http://ns.adobe.com/AdobeIllustrator/10.0/">
	<!ENTITY ns_graphs "http://ns.adobe.com/Graphs/1.0/">
]>
<svg version="1.1" id="레이어_1" xmlns:x="&ns_extend;" xmlns:i="&ns_ai;" xmlns:graph="&ns_graphs;"
	 xmlns="http://www.w3.org/2000/svg" xmlns:xlink="http://www.w3.org/1999/xlink" xmlns:a="http://ns.adobe.com/AdobeSVGViewerExtensions/3.0/"
	 x="0px" y="0px" width="40px" height="57px" viewBox="0 0 40 57" style="enable-background:new 0 0 40 57;" xml:space="preserve">
<g>
	<path style="fill:#FD6120;" d="M20,0C9,0,0,8.9,0,19.8C0,30.7,20,57,20,57s20-26.3,20-37.2C40,8.9,31,0,20,0z M20,29.6
		c-5.5,0-9.9-4.4-9.9-9.8c0-5.4,4.4-9.8,9.9-9.8c5.5,0,9.9,4.4,9.9,9.8C29.9,25.2,25.5,29.6,20,29.6z"/>
	<path style="fill:#DE3F18;" d="M20,0c-0.1,0-0.3,0-0.4,0v9c0.1,0,0.2,0,0.4,0c6,0,10.9,4.8,10.9,10.8c0,6-4.9,10.8-10.9,10.8
		c-0.1,0-0.3,0-0.4,0v26.1C19.9,56.9,20,57,20,57s20-26.3,20-37.2C40,8.9,31,0,20,0z"/>
	<ellipse style="fill:#FFFFFF;" cx="20" cy="19.8" rx="9.9" ry="9.8"/>
	<path style="fill:#D1ECFB;" d="M20,10c5.5,0,9.9,4.4,9.9,9.8c0,5.4-4.4,9.8-9.9,9.8V10z"/>
</g>
</svg>
